<svg width="31" height="32" viewBox="0 0 31 32" fill="none" xmlns="http://www.w3.org/2000/svg">
<rect x="0.481403" y="1.33297" width="29.847" height="29.847" rx="3.36982" fill="#1C2434"/>
<rect x="0.481403" y="1.33297" width="29.847" height="29.847" rx="3.36982" stroke="#3F57D6" stroke-width="0.962806"/>
<path d="M10.0912 22.9771C9.43522 22.9771 8.85381 22.8504 8.34693 22.597C7.84006 22.3286 7.44499 21.9485 7.16174 21.4565C6.87849 20.9645 6.73686 20.3533 6.73686 19.6228C6.73686 18.9818 6.85612 18.4451 7.09465 18.0127C7.34809 17.5804 7.71334 17.2301 8.1904 16.9617C8.66745 16.6934 9.25632 16.4698 9.957 16.2909C10.6577 16.112 11.4553 15.9554 12.3498 15.8213C12.8268 15.7467 13.2144 15.6796 13.5126 15.62C13.8257 15.5455 14.0567 15.4336 14.2058 15.2846C14.3549 15.1206 14.4294 14.8895 14.4294 14.5913C14.4294 14.1739 14.2803 13.8161 13.9822 13.518C13.684 13.2198 13.2144 13.0707 12.5734 13.0707C12.141 13.0707 11.7385 13.1453 11.3658 13.2943C11.008 13.4434 10.695 13.667 10.4266 13.9652C10.1732 14.2634 9.98682 14.6435 9.86756 15.1057L7.02757 14.2335C7.20646 13.6223 7.4599 13.0931 7.78788 12.6458C8.13076 12.1986 8.54074 11.8259 9.01779 11.5277C9.49485 11.2147 10.039 10.9836 10.6502 10.8345C11.2615 10.6854 11.9249 10.6109 12.6405 10.6109C13.7884 10.6109 14.7201 10.7972 15.4357 11.1699C16.1662 11.5277 16.7104 12.0942 17.0682 12.8695C17.426 13.6298 17.6048 14.6137 17.6048 15.8213V17.8338C17.6048 18.3556 17.6123 18.8849 17.6272 19.4216C17.657 19.9582 17.6868 20.5024 17.7167 21.054C17.7614 21.5907 17.8061 22.1274 17.8508 22.6641H15.0108C14.9512 22.2914 14.8916 21.8665 14.8319 21.3894C14.7872 20.8975 14.75 20.4055 14.7201 19.9135H14.3176C14.1089 20.48 13.8107 20.9944 13.4231 21.4565C13.0355 21.9187 12.5585 22.2914 11.992 22.5746C11.4404 22.843 10.8068 22.9771 10.0912 22.9771ZM11.4553 20.6515C11.7385 20.6515 12.0218 20.5993 12.305 20.4949C12.6032 20.3906 12.8864 20.249 13.1548 20.0701C13.438 19.8763 13.6915 19.6377 13.9151 19.3545C14.1536 19.0712 14.3474 18.7507 14.4965 18.3929L14.4518 16.5145L14.9661 16.6263C14.6978 16.8201 14.3847 16.9766 14.0269 17.0959C13.6691 17.2003 13.2964 17.2822 12.9088 17.3419C12.5361 17.4015 12.1634 17.4686 11.7907 17.5431C11.418 17.6177 11.0826 17.7146 10.7844 17.8338C10.5011 17.9531 10.2701 18.1171 10.0912 18.3258C9.92719 18.5196 9.84519 18.7954 9.84519 19.1532C9.84519 19.6154 9.99427 19.9806 10.2924 20.249C10.5906 20.5173 10.9782 20.6515 11.4553 20.6515ZM19.6514 22.6641V10.9239H22.8715V22.6641H19.6514ZM21.2838 9.15734C20.6577 9.15734 20.1731 9.03062 19.8303 8.77719C19.5023 8.50884 19.3383 8.12123 19.3383 7.61436C19.3383 7.09257 19.5023 6.69751 19.8303 6.42916C20.1731 6.16082 20.6577 6.02665 21.2838 6.02665C21.9248 6.02665 22.4094 6.16082 22.7373 6.42916C23.0802 6.69751 23.2517 7.09257 23.2517 7.61436C23.2517 8.10632 23.0802 8.48648 22.7373 8.75482C22.4094 9.02317 21.9248 9.15734 21.2838 9.15734Z" fill="#3F57D6"/>
</svg>
