<svg xmlns="http://www.w3.org/2000/svg" width="18" height="18" viewBox="0 0 18 18" fill="none">
  <path d="M10.9688 1.57501H7.03126C3.43126 1.57501 0.506256 4.41564 0.506256 7.90314C0.506256 11.3906 2.75626 13.8375 8.26876 16.3125C8.40938 16.3688 8.52188 16.3969 8.66251 16.3969C8.85938 16.3969 9.02813 16.3406 9.19688 16.2281C9.47813 16.0594 9.64688 15.75 9.64688 15.4125V14.2031H10.9688C14.5688 14.2031 17.5219 11.3625 17.5219 7.87501C17.5219 4.38751 14.5688 1.57501 10.9688 1.57501ZM10.9688 12.9938H9.33751C8.80313 12.9938 8.35313 13.4438 8.35313 13.9781V15.0188C3.60001 12.825 1.74376 10.8 1.74376 7.93126C1.74376 5.14689 4.10626 2.86876 7.03126 2.86876H10.9688C13.8656 2.86876 16.2563 5.14689 16.2563 7.93126C16.2563 10.7156 13.8656 12.9938 10.9688 12.9938Z" fill="#64748B"/>
  <path d="M5.42812 7.28439C5.0625 7.28439 4.78125 7.56564 4.78125 7.93127C4.78125 8.29689 5.0625 8.57814 5.42812 8.57814C5.79375 8.57814 6.075 8.29689 6.075 7.93127C6.075 7.56564 5.79375 7.28439 5.42812 7.28439Z" fill="#64748B"/>
  <path d="M8.99999 7.28439C8.63437 7.28439 8.35312 7.56564 8.35312 7.93127C8.35312 8.29689 8.63437 8.57814 8.99999 8.57814C9.33749 8.57814 9.64687 8.29689 9.64687 7.93127C9.64687 7.56564 9.33749 7.28439 8.99999 7.28439Z" fill="#64748B"/>
  <path d="M12.5719 7.28439C12.2063 7.28439 11.925 7.56564 11.925 7.93127C11.925 8.29689 12.2063 8.57814 12.5719 8.57814C12.9375 8.57814 13.2188 8.29689 13.2188 7.93127C13.2188 7.56564 12.9094 7.28439 12.5719 7.28439Z" fill="#64748B"/>
</svg>